<svg version="1" xmlns="http://www.w3.org/2000/svg" width="2218.667" height="2218.667" viewBox="0 0 1664.000000 1664.000000"><path d="M799.9 352.5c-.2.2-3.8.6-7.9 1-4.1.3-8.6.7-10 1-1.4.2-5 .7-8 1-3 .4-6.6.8-8 1-1.4.2-4.5.7-7 1-2.5.4-6.5 1-9 1.5-2.4.5-4.8.6-5.2.4-.5-.3-.8 0-.8.6s-.3.9-.8.6c-.6-.4-7.3.8-16.9 2.9-1.3.3-3.3.7-4.5.9-1.3.3-5.9 1.4-10.3 2.6-4.4 1.2-8.7 2.3-9.5 2.5-.8.2-1.5.4-1.5.5 0 .1-.8.4-5 1.4-1.1.2-3.3 1-5 1.6-1.6.6-3.9 1.4-4.9 1.6-3.9.7-12.1 3.7-13.5 4.8-.8.6-1.5 1-1.5.8-.2-.7-6.1 1.1-9.6 2.8-1.9 1-3.8 1.8-4.2 1.9-1.7.3-4.6 1.4-9.6 3.7-2.9 1.3-5.4 2.4-5.6 2.4-.2 0-2.1.8-4.2 1.7-2.2.9-4.1 1.7-4.4 1.8-1.2.2-14.6 6.9-15.8 7.9-.8.5-2.3 1.2-3.5 1.3-1.2.2-2.4.7-2.7 1.2-.3.5-3.6 2.5-7.5 4.5-8.1 4.2-14.7 7.9-28.3 16.1-4.6 2.8-10.7 7.1-11 7.7-.2.5-.8.8-1.2.8-.5 0-3.9 2.1-7.5 4.7-3.7 2.7-7.7 5.5-8.9 6.3-3.2 2.2-9.6 7-13.2 10-1.7 1.4-4.8 3.8-6.9 5.5-2.1 1.6-4.3 3.4-4.9 4-.6.5-4.2 3.7-8.1 7-3.8 3.3-8.1 7.1-9.6 8.5-6.2 5.8-17.9 17.2-17.9 17.4 0 .1-2.6 2.9-5.7 6.2-3.2 3.3-8.5 9.1-11.8 12.8-3.3 3.8-7.2 8.2-8.7 9.8-1.6 1.6-2.8 3.3-2.8 3.7 0 .5-1 1.9-2.3 3.2-2.3 2.3-8 9.5-12.2 15.4-1.1 1.6-2.4 3.3-3 4-.5.6-1.4 1.8-2 2.7-2.3 3.8-15.5 23.4-16.4 24.5-.6.7-1.1 1.6-1.1 2.1s-.7 1.5-1.5 2.2c-.8.7-1.3 1.6-1 2 .3.5.1 1-.3 1.2-.5.1-2.4 3-4.2 6.3-1.8 3.3-4.2 7.6-5.3 9.5-6.6 11.7-24.7 50.2-24.7 52.6 0 .3-.6 2-1.4 3.7-3.3 7.5-11.8 33-13 38.9-.3 1.3-1 3.9-1.6 5.8-.6 1.9-1.3 4.6-1.6 6-.3 1.4-1.3 5.9-2.4 10-3.2 12.7-5.6 23.7-6.5 29.5-.4 3.1-.9 5.6-2.5 14-.6 2.7-1.2 7-1.5 9.5-.3 2.5-.7 5.8-1 7.5-.6 4.8-1.6 18.3-2 26.6-.3 8.4-1.5 11.5-4.8 13-2.7 1.1-20 10.3-28.2 14.8-3.3 1.8-7.8 4.3-10 5.5-2.2 1.1-4.2 2.3-4.5 2.6-.3.3-2.1 1.3-4 2.3-6 3.2-9.5 5.2-10 5.7-.3.3-1.6 1.1-3 1.8-1.4.6-5.2 2.8-8.5 4.7-3.3 1.9-7.5 4.2-9.2 5.2-1.8.9-3.3 2-3.3 2.5 0 .4-.6.8-1.4.8-.8 0-3 .9-4.8 2.1-1.8 1.1-11.6 7-21.8 13-10.2 6.1-19.3 11.8-20.2 12.6-1 .9-1.8 1.2-1.8.7s-.4-.4-.8.1c-.7 1-10.9 7.5-11.8 7.5-.2 0-2.6 1.6-5.3 3.5-2.6 1.9-5.3 3.5-6 3.5-.6 0-1.1.4-1.1.8 0 .5-1 1.4-2.2 2.1-4.1 2.1-11.9 7.1-12.8 8.1-.3.3-3.6 2.6-7.5 5-3.8 2.5-7.4 4.8-8 5.3-.5.4-3.2 2.2-6 4-5.5 3.5-5.6 3.6-10.1 7.2-1.8 1.4-3.7 2.5-4.3 2.5-.6 0-1.1.4-1.1 1 0 .5-.6 1-1.4 1-.8 0-1.6.3-1.8.7-.1.5-3.4 3-7.1 5.8-9.4 6.9-21.1 15.8-21.7 16.5-.3.3-2.3 1.9-4.5 3.5-4.5 3.3-8 6.2-10.5 8.6-.9.8-2.6 2.2-3.7 3-7.9 5.5-34.3 30.6-45.3 42.9-3.6 4-8.2 9.2-10.3 11.5-2 2.3-3.7 4.5-3.7 4.9 0 .4-.5 1.2-1 1.9-4.4 5.2-5.6 6.8-8.4 11.3-1.7 2.7-3.6 5.9-4.3 7-4.7 7.5-9.7 20.8-12.1 31.9-.8 4-.7 21.1.1 25.5.9 4.4 3.4 12.7 4.4 14.3.4.7.8 1.8.9 2.5.2.8 1 2.2 1.8 3.1.9 1 1.6 2.1 1.6 2.5 0 2.1 11.6 14.8 17.9 19.6 1.8 1.4 3.9 3.1 4.7 3.8.8.7 1.4 1 1.4.5 0-.4.4-.3.8.4 1.1 1.8 15.9 8.9 24.7 11.8 4.4 1.5 8.7 2.9 9.5 3.2 1.7.6 3.1 1 7.5 1.8 1.7.3 5.9 1.1 9.5 1.9 3.6.8 6.8 1.2 7.3.9.4-.2.7 0 .7.4 0 .5 1.2.8 2.6.8 1.5-.1 4.9.2 7.8.7 9.6 1.6 27.1 2.2 58.1 2.2 33.8 0 49.5-.7 72.5-3 2.5-.3 7.2-.7 10.5-.9 12.4-1 35.2-3.4 47.5-5.1 1.9-.2 5.8-.7 8.5-1 6.9-.7 7.8-.8 9.2-1.7.7-.5 1.7-.6 2.2-.3.4.3 3.5.1 6.7-.4s7.5-1.2 9.4-1.4c5.3-.7 15.6-2.3 20.5-3.2 1.7-.3 4.6-.7 6.5-.9 1.9-.2 3.5-.4 3.5-.5 0-.1.9-.3 2-.4 2.1-.3 8-1.3 13-2.2 1.7-.3 4.4-.7 6-1 1.7-.3 3.9-.6 5-.8 1.1-.2 3.7-.7 5.9-1.1 2.1-.4 4.8-.9 6-1.1 1.1-.2 3.7-.7 5.6-1 1.9-.3 6.9-1.2 11-2 4.1-.9 8.5-1.8 9.8-2 2.5-.4 5.9-1.1 9.7-1.9 1.4-.3 3.8-.7 5.4-.9 1.5-.2 3.2-.6 3.7-.9.5-.3 3.1-.8 5.7-1.1 2.6-.3 5.5-.9 6.5-1.4.9-.5 2.4-.8 3.2-.7.8.1 2.1-.3 2.8-.8.6-.5 1.2-.7 1.2-.4 0 .3 1.7.1 3.8-.4 4.7-1 4.8-.9 19.3 13.2 13.9 13.7 27.2 25.9 35.4 32.5 3.3 2.7 6.5 5.3 7.1 5.9.6.5 2.6 2.1 4.4 3.5 1.8 1.4 4.5 3.6 5.9 5 1.4 1.4 2.6 2.3 2.7 2 .1-.3 1.4.5 2.8 1.8 1.5 1.2 2.8 2.2 3.1 2.2.3 0 3.1 2 6.2 4.5 3.1 2.4 5.9 4.2 6.2 4 .2-.3.9.1 1.5.8 1.4 1.7 21.1 14.3 29.1 18.7 3.3 1.8 9.6 5.3 14 7.9 4.4 2.5 8.7 4.7 9.5 4.8.8.1 1.6.7 1.8 1.2.2.6.9 1.1 1.7 1.1.7 0 6.4 2.5 12.6 5.7 6.3 3.1 12 5.6 12.7 5.6.6 0 1.2.4 1.2.9 0 .4.3.7.8.6.4-.1 2.1.4 3.7 1.1 4.3 1.7 6 2.3 6 2 0-.1 1.8.7 4 1.8 3.6 1.8 30.6 11.3 34.5 12.2.3 0 3 .8 6 1.7 3 .9 6.2 1.8 7 1.9.8.2 1.5.4 1.5.5 0 .2.5.3 7.5 2 2.5.7 5.2 1.3 6 1.5 2.8.8 14.7 3.3 17.6 3.9 1.6.2 3.8.7 4.9.9 1.8.4 8.9 1.5 20.5 3.2 1.9.3 5.5.8 8 1 2.5.3 6.3.7 8.5 1 23.5 2.7 78.3 2.7 102-.1 3.3-.4 7.9-.8 10.2-.8 2.4-.1 4.3-.3 4.3-.6s1.2-.6 2.8-.6c2.5-.1 6.2-.6 14.2-1.9 11.2-1.8 14.7-2.5 22-4.1 3.6-.8 7.6-1.7 9-2 21.7-4.6 53.6-15.3 81-27.1 12.4-5.4 39.1-18.5 42.9-21.2 1.4-1 4.2-2.6 6.1-3.6 9.7-5 11-5.8 11-6.6 0-.5.6-.9 1.4-.9.8 0 2.1-.6 2.8-1.4.8-.7 2.7-2 4.3-2.9 1.7-.8 4-2.5 5.3-3.7 1.2-1.1 2.2-1.8 2.2-1.5 0 .3 4.8-3 10.6-7.3 5.8-4.2 11.3-8.2 12.2-8.7.9-.6 2.4-1.8 3.3-2.8.9-.9 2.1-1.7 2.7-1.7.6 0 1.2-.3 1.4-.8.2-.4 2.3-2.3 4.8-4.2 2.5-1.9 5.4-4.4 6.6-5.5 1.2-1.1 3.4-3.1 5-4.4 9.5-7.9 32.7-30.3 39.9-38.6 2.2-2.5 5.6-6.3 7.5-8.4 2-2.1 5.1-5.8 7-8.1 1.9-2.4 4.5-5.4 5.7-6.7 1.2-1.3 1.9-2.3 1.6-2.3-.4 0 .2-.8 1.3-1.9 2.8-2.7 4.4-4.7 11.7-15.2 3.7-5.2 7.1-9.9 7.5-10.4.4-.6 3.1-4.6 6-9s5.5-8.5 6-9c.4-.6 1.4-2.4 2.2-4 .8-1.7 1.8-3.2 2.1-3.5 1.9-1.7 20.2-36.5 25.2-48 .9-1.9 2.8-6.2 4.2-9.5 1.5-3.3 3.3-7.6 4-9.5.7-1.9 1.6-4.4 2.1-5.5.4-1.1.6-2.3.6-2.8-.1-.4.3-.7.9-.7.5 0 .8-.4.5-.8-.2-.4.2-2.3 1.1-4.2 2.6-5.9 3.1-7.3 5.3-14.5 1.2-3.9 2.4-7.7 2.7-8.5.3-.8.7-2 .9-2.5.1-.6.7-2.5 1.3-4.3.5-1.7.8-3.2.5-3.2-.2 0 .2-1.3 1.1-3 .8-1.6 1.5-3.2 1.5-3.5 0-.3 0-.6.1-.8 0-.1.3-1.3.6-2.7.6-3.1.7-3.5 2.2-9 .7-2.5 1.5-5.4 1.7-6.5.2-1.1.9-4.5 1.5-7.5l1.3-6.5c.1-.6.5-1.9.9-3 .3-1.1.8-4.1 1.1-6.7.3-2.6.8-5.8 1.1-7 1.2-5.7 1.6-8.1 2.9-20.8.2-1.9.5-3.5.6-3.5.2 0 .4-3.3 1.4-20.5.8-13.6 1.1-14.6 6.1-18 2.4-1.7 4.8-3 5.4-3 .6 0 1.1-.5 1.1-1 0-.6.4-1 1-1 .5 0 4.8-2.3 9.6-5 4.8-2.8 8.9-5 9.1-5 .3 0 1.7-.9 3.3-2 1.5-1.1 3-1.7 3.4-1.3.3.3.6.1.6-.5 0-.7.5-1.2 1.1-1.2.6 0 3.8-1.6 7.2-3.6 7.4-4.4 11.4-6.7 17.9-10.2 2.7-1.5 5.7-3.2 6.6-3.7.9-.6 5.1-3 9.2-5.4 4.1-2.5 7.6-4.8 7.8-5.3.2-.4 1.2-.8 2.2-.8 1 0 2.2-.5 2.5-1.1.4-.5 1.7-1.5 2.8-2 1.2-.6 4-2.1 6.2-3.4 2.2-1.4 5.9-3.5 8.3-4.7 2.3-1.2 4.2-2.5 4.2-2.8 0-.4 1.8-1.5 4-2.5s4-2.2 4-2.7c0-.4.5-.8 1-.8.6 0 4.7-2.3 9.1-5 4.4-2.8 8.3-5 8.5-5 .3 0 1-.5 1.7-1 1.8-1.6 16.7-11 17.3-11 .3 0 1-.5 1.7-1 1.1-1 41.9-28.3 45.5-30.5.9-.6 2.7-2 4.1-3.3 1.4-1.2 3.1-2.2 3.8-2.2.6 0 1.3-.3 1.5-.8.2-.4 2.8-2.5 5.8-4.7 6.9-5 7.7-5.6 10.1-7.8 1-.9 1.9-1.4 1.9-1 0 .4.8-.2 1.9-1.3 1-1 2.8-2.6 4.1-3.4 1.2-.8 3-2.2 4-3 1-.8 3.4-2.7 5.2-4.2 14.9-11.9 21.7-17.5 24.1-20 1.5-1.5 2.9-2.8 3.2-2.8.7 0 11.3-10 20.4-19.1 14.1-14.2 24.9-27.2 33.5-40.2 4.6-7.1 12.2-22.1 13.2-26.2.4-1.7.9-3.5 1.3-4 .3-.6.6-1.5.8-2 .1-.6.4-2.1.8-3.5 2-8.6 2.5-20.8 1.2-28.5-.4-2.2-.9-5.3-1.2-6.8-.5-3.3-7.2-17.5-9.1-19.5-.8-.7-1.4-1.6-1.4-2 0-.9-11.7-13.2-12.5-13.2-.3 0-1.1-.5-1.8-1-5.8-4.9-8.3-6.5-16.2-10.4-12.1-6-25.3-10.4-35.8-12.1-1.6-.3-3.2-.7-3.7-1-.5-.3-3-.8-5.7-1.1-2.6-.3-5.9-.7-7.3-1-22.8-4.7-83.7-5.7-125.5-2-2.7.3-8.6.8-13 1.1-4.4.3-9.3.7-11 .9-1.6.2-6.4.7-10.5 1.1-16.1 1.6-22.9 2.3-27 2.9-4.9.7-12.8 1.7-17 2.1-1.9.2-4.4.6-5.5.8-1.1.3-4.7.8-8 1.2-3.2.4-6.6.8-7.5 1-.8.1-3.5.6-6 .9-2.5.3-5.6.8-7 1.1-1.4.3-4.3.7-6.5 1-2.2.3-7.8 1.2-12.5 2s-10.5 1.7-12.9 2c-2.3.3-4.6.7-5 .9-.3.2-3.1.7-6.1 1.1-3 .4-5.9.9-6.3 1.2-.5.3-2.3.7-4 .8-1.8.2-4.7.5-6.4.9-1.8.3-4.8.8-6.5 1.1-3.6.6-12.8 2.4-28.8 5.6-5.8 1.2-11.6 2.3-13 2.5-1.4.2-7 1.2-12.5 2.4-18.2 3.7-15.2 4.6-29.5-9.5-14.2-14.1-19.6-19.2-26.6-25.3-2.7-2.3-5.8-5.1-6.9-6-1.1-1-4.2-3.6-7-5.7-2.7-2.2-5.7-4.8-6.6-5.7-.9-1-2.1-1.8-2.6-1.8-.6 0-1.7-.7-2.4-1.6-.8-.9-3.1-2.7-5.2-4.1-2-1.3-4.9-3.4-6.3-4.6-1.4-1.2-7.1-5.2-12.7-8.9s-10.6-7.1-11.2-7.5c-2-1.6-18.3-11.3-18.9-11.3-.3 0-2.5-1.2-4.9-2.7-2.3-1.5-6.9-4.1-10.2-5.8-3.3-1.6-6.7-3.5-7.5-4-.8-.5-2.2-1-3-1.2-.8-.1-1.6-.7-1.8-1.2-.2-.6-.9-1.1-1.5-1.1s-4.3-1.5-8.1-3.4c-7.8-3.8-18.1-8.3-20.6-9.1-.3-.1-1.6-.7-3-1.3-4.1-1.9-15.3-6.2-16.1-6.2-.3 0-2.3-.7-4.3-1.5s-3.8-1.5-4.1-1.5c-.3 0-2.1-.6-4-1.4-1.9-.8-3.5-1.2-3.5-.9 0 .3-.7-.1-1.7-.8-.9-.8-1.9-1.3-2.2-1.3-.7.2-.9.1-8.6-2.2-3.3-1-6.4-1.9-7-2-.5-.1-5.5-1.4-11-2.9-5.5-1.4-10.9-2.8-12-3.1-9.7-2-14.9-3-19.5-3.9-1.4-.3-3.6-.7-5-1-1.4-.3-4.5-.8-7-1.1-4.5-.5-6-.7-13.5-1.8-4.4-.6-16.2-1.6-27-2.1-11.2-.6-66.2-1.4-66.6-1zm710.6 193c22.2.7 36.2 1.4 41.3 1.9 2.1.3 6.4.8 9.7 1.1 5.5.7 20.2 4.9 26.8 7.8 1.5.6 2.7 1.7 2.7 2.4 0 2.2-7.1 14.7-10.6 18.8-8.2 9.4-13.3 15.1-20 21.8-9.6 9.8-27.7 26.9-34.3 32.6-3 2.5-6.2 5.3-7.2 6.2-2.6 2.5-27.6 21.1-34.4 25.5-3.3 2.1-6.2 4.1-6.5 4.4-.9 1.1-15.9 11-16.5 11-.4 0-2.1 1.1-3.9 2.5-1.8 1.4-3.8 2.5-4.4 2.5-.6 0-1.2.3-1.4.7-.4 1.1-8.5 6.3-9.7 6.3-.5 0-1.1.3-1.3.7-.4 1.1-31.3 19.6-45.8 27.6-3 1.7-5.6 3.4-5.8 3.9-.2.4-1.2.8-2.3.8-1 0-1.9.4-1.9.9s-1.5 1.4-3.2 2.2c-1.8.7-3.5 1.5-3.8 1.8-.3.3-1.8 1.3-3.5 2.2-1.6.9-5.5 3-8.5 4.7-3 1.6-7.5 4-10 5.3-2.5 1.3-4.7 2.5-5 2.9-.3.3-5.2 3-11 5.9-5.8 3-13.2 7-16.5 8.8-3.3 1.9-7.2 3.9-8.7 4.4-1.6.6-2.8 1.6-2.8 2.2 0 .6-.3.8-.6.4-.4-.3-3.9 1.1-7.8 3.2-9 4.9-19.9 10.5-20.6 10.6-.3 0-1.6.7-3 1.5-3.2 1.8-11.9 5.9-12.6 5.9-.2 0-1.2.7-2 1.6-.9.8-2.4 1.5-3.4 1.5s-2 .3-2.2.7c-.1.5-2.5 1.9-5.3 3.2-5.7 2.8-5.3 2.6-8.2 3.6-1.3.4-2.3 1.1-2.3 1.6s-.3.8-.7.7c-.5-.1-4.8 1.8-9.8 4.2-4.9 2.4-9.3 4.3-9.7 4.2-.5-.1-.8.3-.8.8 0 .6-.5 1-1.1 1-.5 0-8 3.4-16.5 7.5s-15.6 7.5-15.8 7.5c-.2 0-5.6 2.5-12 5.5s-12 5.5-12.4 5.6c-.4 0-1.8.7-3.2 1.5-2.8 1.5-15.9 7.4-16.3 7.3-.1 0-2.5 1.1-5.2 2.5-6.5 3.2-10.8 5-11.7 4.8-.5-.1-.8.3-.8.8 0 .6-.7 1-1.6 1-.9 0-2.8.7-4.2 1.5-4.1 2.2-20.2 9.5-21.1 9.5-.4 0-3.1 1.1-5.9 2.5-2.9 1.4-5.4 2.5-5.7 2.5-.2 0-2.8 1.1-5.7 2.4-13.9 6.4-23.7 10.3-24.2 9.8-.3-.3-.6.1-.6.8 0 .7-.3 1-.7.7-.3-.4-1.2-.2-1.9.3-.6.6-2.2 1.3-3.5 1.5-1.2.3-2.5.8-2.8 1.2-.3.5-1 .9-1.6 1-1.6.3-27.8 11.2-30.7 12.8-1.4.8-3.1 1.5-3.6 1.5-.6 0-2.3.5-3.9 1.1-1.5.6-3 1-3.2.9-.2-.1-.7.2-1 .7-.5.7-6.2 3.1-8.6 3.6-.5.1-1.2.4-1.5.8-.6.6-9.8 4.1-10.2 3.9-.2-.1-2.6 1-5.4 2.4-2.9 1.4-5.7 2.6-6.3 2.6-.6 0-3 .9-5.4 1.9-2.3 1-6.9 2.9-10.2 4.1-3.3 1.2-7.2 2.9-8.7 3.7-1.5.7-3.1 1.4-3.5 1.5-.5 0-1.9.5-3.3 1-1.4.6-2.9 1.1-3.5 1.2-.5.2-2.1.8-3.5 1.4-2.1.9-5.3 2.1-7 2.7-.3.1-1.8.7-3.3 1.3-1.6.7-3.4 1.2-4.1 1.2-.6 0-1.7.5-2.4 1.2s-1.2.8-1.2.2c0-.5-.3-.5-.8.1-.4.5-3.8 2.1-7.7 3.4-3.8 1.3-8.1 2.9-9.5 3.4-1.4.6-2.9 1.1-3.5 1.3-.5.1-2.3.7-4 1.4-1.6.6-3.1 1.1-3.2 1.1-.2 0-2.4.9-5 2-2.7 1.2-5.5 2.2-6.3 2.5-4.5 1.1-23.6 8-24.1 8.7-.3.5-.8.8-1 .7-.2-.1-1.1.1-1.9.4-.8.3-7.1 2.3-14 4.6s-13.4 4.5-14.5 5c-1.1.5-3.8 1.4-6 2.1-2.2.6-4.5 1.6-5.1 2.1-.7.5-1.6.8-2 .7-.5-.1-2.2.3-3.7.9-1.6.7-3.2 1.2-3.7 1.2s-2.1.5-3.7 1.1c-1.5.6-2.9 1-3 1-.2 0-1.8.6-3.8 1.5-1.9.8-3.8 1.5-4.2 1.5-.5.1-1.8.5-3.1 1s-3.5 1.2-5 1.5c-1.5.4-3.3 1.1-3.9 1.7-.7.5-1.3.7-1.3.4 0-.4-1.9.1-4.2.9-2.4.9-4.7 1.7-5.3 1.8-.5.2-1.9.6-3 1-5.6 2.1-24.7 8-25.5 7.9-.3-.1-.9.2-1.5.7-.5.4-3.5 1.5-6.5 2.3-3 .9-11.2 3.3-18.2 5.5-7.1 2.2-12.8 3.7-12.8 3.5 0-.3-.6 0-1.3.6-.8.6-2.2 1.2-3.3 1.4-1 .2-2.6.7-3.4 1-.8.3-8.7 2.6-17.5 5.2s-16.9 4.9-18 5.3c-1.1.3-2.2.6-2.5.7-.3.1-3.2.9-6.5 1.9-3.3 1-7.3 2.2-9 2.7-1.6.4-5.5 1.5-8.5 2.4-3 .9-10.2 2.9-16 4.6-11.2 3.1-11.1 3.1-18 4.8-2.5.7-5.2 1.5-6 1.8-.8.3-2.4.8-3.5 1-1.1.2-2.7.6-3.5 1-.8.3-2.2.7-3 .8-.8.1-3.5.8-6 1.5-2.5.8-4.7 1.4-5 1.5-6.2 1.4-12.4 3-15.7 4.1-2.3.7-5.2 1.6-6.5 1.8-1.3.3-4.3 1-6.8 1.7-2.5.6-5.2 1.2-6 1.4-.8.2-3 .8-4.7 1.4-1.8.5-3.3.7-3.3.4 0-.3-.6-.1-1.2.4-.7.6-3.1 1.3-5.4 1.7-2.2.3-6.3 1.2-9 2.1-5.7 1.7-38.7 9.8-45.4 11.1-1.4.3-3.4.8-4.5 1.1-1.1.3-2.9.7-4 .9-1.1.2-3.5.7-5.4 1.3-1.9.6-3.7.9-3.9.6-.3-.3-1 0-1.7.5-.6.5-2.7 1.2-4.6 1.4-1.9.3-5.6 1-8.4 1.6-9.7 2.2-26.2 5.8-29.5 6.4-1.4.3-2.5.5-2.5.6 0 .2-2.4.7-6.9 1.5-4.4.8-4.4.8-15.1 3-4.4 1-8.9 1.9-10 2.1-1.1.1-4.5.8-7.5 1.4-3 .6-6.6 1.3-8 1.6-1.4.2-3.4.6-4.6.9-2.3.5-8.8 1.6-11.9 2.1-1.1.1-2.1.3-2.2.4-.4.3-1.2.5-6.6 1.4-2.7.4-5.9.9-7 1.2-1.2.2-3.8.7-5.7 1-1.9.3-4.6.7-6 .9-1.4.2-3.8.7-5.5 1-1.6.3-4.3.7-6 .9-1.6.3-4.3.7-6 1-3.7.6-7.8 1.3-13 2.1-2.2.3-5.1.7-6.5 1-18.5 2.9-33 4.1-61 5-40 1.4-75.5.7-94.5-2-5.6-.8-20.2-4.3-23.6-5.8-1.9-.7-3.8-1.5-4.4-1.6-.5-.2-2.5-.9-4.4-1.7-1.8-.8-3.7-1.4-4.1-1.4-.4 0-1.4-.8-2.3-1.8-1.5-1.7-1.5-2.1.5-6.2 1.2-2.5 3.1-5.7 4.2-7.2 1.2-1.4 3.2-4.1 4.6-5.9 3.8-5 9.4-11.4 15-17.1 2.7-2.8 5-5.5 5-5.9 0-.5.4-.9.8-.9s3-2.1 5.8-4.8c2.7-2.6 7.9-7.2 11.4-10.2 3.6-3 6.7-5.7 7-6.1.4-.4 6.3-5.1 22-17.6.8-.7 3.3-2.6 5.5-4.2 2.2-1.7 4.5-3.4 5-3.9 2.9-2.2 6.5-4.9 8.5-6.2 1.2-.8 4.1-3 6.4-4.7 2.2-1.8 4.5-3.3 4.9-3.3.4 0 1.8-.9 2.9-2 1.2-1.1 10.8-7.8 21.3-14.8 10.4-7 19.2-12.9 19.5-13.2.3-.3 1.4-1 2.5-1.6 2.6-1.5 30.7-19.1 32.1-20.1.5-.5 2.1-1.4 3.3-2.1 6.7-3.9 10-5.8 14.1-8.1 2.5-1.3 4.7-2.8 5-3.1.3-.4 1.7-1.3 3.2-2.1 6-3.1 18.3-10.2 18.8-10.8.3-.4 1.6-1.2 3-1.8 1.4-.7 5.2-2.7 8.5-4.6 3.3-1.9 8-4.5 10.5-5.9 2.5-1.4 7-4 10-5.7 9.6-5.4 16-8.4 16.6-7.8.4.3.8 1.9 1 3.4.2 1.5.8 5 1.4 7.8.6 2.7 1.4 6.3 1.6 8 .3 1.6 1.8 8.4 3.5 15 1.6 6.6 3.1 13.1 3.3 14.5.3 1.4.5 2.5.6 2.5.2 0 1 3.4 1.4 5.5.1.8.7 2.5 1.4 3.6.6 1.2.9 2.4.6 2.7-.3.3-.1 1.4.5 2.5.5 1 1.2 3 1.5 4.3.7 4 10.2 31.6 13.3 38.9.3.8.7 1.7.8 2 .1.3.9 2.3 1.9 4.5 1 2.2 2.6 6 3.6 8.5s3.3 7.6 5.1 11.5c1.8 3.8 3.3 7.2 3.3 7.5.5 2.7 3.2 7 4.5 7.1.9.1 2.5.2 3.6.3 1.1.1 3.4-.4 5.2-1.1 1.7-.6 3.4-.9 3.6-.6.3.2 2.2 0 4.3-.6 2.2-.5 5.3-1.3 6.9-1.6 7-1.4 8.2-1.6 12-2.7 2.2-.5 5.1-1.2 6.5-1.5 1.4-.2 5-1 8.1-1.8 3-.8 6.6-1.7 8-1.9 1.3-.2 2.4-.5 2.4-.6 0-.2 1.2-.4 5.5-1.3 1.4-.3 4.5-1 7-1.6 2.5-.7 5.6-1.4 7-1.7 1.4-.3 5-1.2 8-2s6.6-1.7 8-2c1.4-.3 3.4-.8 4.5-1.1 1.1-.4 2.5-.8 3-.9.6-.1 3-.7 5.5-1.4s5.6-1.4 7-1.7c4-.8 5.5-1.1 5.5-1.3 0-.1.7-.3 1.5-.5s2.6-.7 4-1c1.4-.4 3.2-.8 4-.9.8-.2 3.5-.9 6-1.6 2.5-.7 5-1.4 5.5-1.5.6-.2 4.6-1.3 9-2.5s9.1-2.4 10.4-2.6c1.3-.3 3.2-.9 4.3-1.5 1-.5 1.8-.8 1.8-.5 0 .3 4-.7 18.5-4.8.6-.2 1.7-.6 2.5-.9.8-.3 2.9-.8 4.5-1.1 3.5-.7 6-1.4 6-1.6 0-.1.7-.3 1.7-.5 2.1-.4 19.1-5.3 24.5-7.1 2.3-.7 5.2-1.5 6.5-1.8 1.3-.2 6.1-1.6 10.8-3 4.7-1.5 9.2-2.8 10-3 2.9-.7 16.5-4.8 18-5.3.8-.3 2-.7 2.5-.9.6-.1 4.8-1.4 9.5-2.9 4.7-1.4 9-2.7 9.5-2.9.6-.1 5.7-1.7 11.5-3.5 5.8-1.9 11-3.4 11.5-3.5.6-.1 1.5-.5 2.1-.8.6-.4 2.1-.9 3.5-1.1 1.3-.3 3.5-1 4.9-1.5 1.4-.6 6.6-2.3 11.5-3.9 5-1.5 9.2-3 9.5-3.3.3-.3 1-.5 1.5-.5.6 0 8.4-2.5 17.5-5.4 9.1-3 16.7-5.6 17-5.6.3-.1 1.2-.4 2-.7.8-.4 7.8-2.8 15.5-5.4 7.7-2.6 15.1-5.1 16.5-5.7 1.4-.6 3.1-1.1 3.8-1.3.8-.1 2.1-.6 3-1 .9-.3 7.1-2.6 13.7-4.9 6.6-2.3 16.3-5.8 21.7-7.8 5.3-2 9.9-3.3 10.2-3 .3.4.6.1.6-.5 0-.7.8-1.2 1.8-1.2s2.2-.3 2.6-.7c.3-.4 1.2-.8 1.9-.9 1-.2 12.3-4.3 16.7-6.1.8-.3 2-.7 2.5-.9 3.1-.9 8.1-3 8.6-3.7.3-.5.8-.7 1-.6.6.5 27.7-9.6 34.9-12.9 1.9-.9 4.3-1.7 5.3-1.9 1-.2 2.8-.9 4-1.5 1.2-.7 2.5-1.3 3-1.4.4-.1.9-.3 1.2-.4.3-.1.8-.3 1.3-.5.4-.1 1.6-.5 2.7-1 1.1-.4 10.3-4.2 20.5-8.3 26.9-10.8 40.2-16.2 42.5-17.2 1.1-.5 3.8-1.6 6-2.5 2.2-1 4.9-2.1 6-2.6 13.6-5.9 21.2-9.1 22-9.3 1-.3 4.9-2 13-5.6 2.2-1 10.3-4.5 18-7.8 14.2-6.1 24.6-10.7 32.2-14.4 2.3-1 4.4-1.8 4.5-1.7.2.1 1.4-.4 2.8-1.1 1.4-.8 2.7-1.5 3-1.5.3-.1 4.6-2 9.5-4.4 11.4-5.4 13.8-6.5 14.8-6.3.4.1.7-.3.7-.8 0-.6.4-1 .9-1s4-1.4 7.8-3.2c3.7-1.7 7.1-3.1 7.6-3 .4.1.7-.3.7-.8 0-.6.4-1 .9-1s4.4-1.7 8.8-3.7c4.3-2 7.8-3.5 7.8-3.2 0 .2 1.4-.6 3.2-1.9 1.7-1.2 3.4-2.2 3.6-2.2.3 0 7.6-3.4 16.2-7.5 8.5-4.1 15.9-7.5 16.3-7.7.4-.1 5.3-2.6 11-5.5 5.6-2.9 10.2-4.9 10.2-4.5 0 .4.4.2.8-.4.4-.5 8.1-4.7 17.2-9.2 33.6-16.7 34.6-17.5 32.9-23.5-.5-1.7-.6-3.3-.4-3.8.3-.4.1-1-.5-1.4-.5-.3-1-1.5-1-2.6 0-2-1.8-8.1-7.3-24.9-1.7-5.2-3.2-10-3.3-10.5-.1-.6-.6-2.1-1.2-3.5-.5-1.4-1-2.8-1.1-3.3 0-.4-.8-2.1-1.6-3.7s-1.5-3.1-1.4-3.2c.1-.3-.6-1.9-3.6-9.3-.7-1.7-1.6-4-2-5.3-1.4-4.7-17.8-38.5-21.8-45.2-1.2-1.9-2.2-4.1-2.4-4.9-.1-.8-.6-1.7-1.1-2-1.5-1-7.1-12.3-7.8-15.7-.5-2.9-.3-3.2 2.8-3.9 1.8-.4 4.1-.8 5.1-.8.9 0 1.7-.4 1.7-1s.3-.7.6-.4c.4.3 1.5.2 2.5-.4 1.4-.7 1.9-.6 1.9.3 0 .9.3 1 .8.2.4-.6 2.3-1.4 4.2-1.7 9.6-1.7 17.2-2.9 18.8-3 .6 0 1.2-.3 1.2-.6s1.5-.6 3.3-.7c1.7 0 4.8-.3 6.7-.7 1.9-.3 4.9-.8 6.5-1.1 16.6-2.8 27.7-4.6 33-5.1 1.7-.2 4.5-.6 6.3-.9 4.9-.9 8.3-1.4 12.7-2 10.5-1.4 13.2-1.8 16-2.3 1.7-.3 4.4-.6 6-.8 1.7-.1 3-.4 3-.5 0-.1 1.8-.3 4-.5 3.7-.3 7.1-.7 16.5-2 4-.6 9.5-1.1 19-2 3.6-.3 7.9-.7 9.5-1 1.7-.2 6.6-.7 11-1 4.4-.4 9.8-.9 12-1.1 2.2-.2 8.7-.6 14.5-1 5.8-.3 10.6-.7 10.7-.8.2-.2 14.4.2 35.8.9z"/></svg>